<?xml version="1.0" encoding="UTF-8"?>
<svg width="256px" height="53px" viewBox="0 0 256 53" version="1.1" xmlns="http://www.w3.org/2000/svg" xmlns:xlink="http://www.w3.org/1999/xlink">
    <!-- Generator: Sketch 42 (36781) - http://www.bohemiancoding.com/sketch -->
    <title>idle-seattle-logo</title>
    <desc>Created with Sketch.</desc>
    <defs></defs>
    <g id="Page-2" stroke="none" stroke-width="1" fill="none" fill-rule="evenodd">
        <g id="Slide-op1-Copy" transform="translate(-372.000000, -360.000000)">
            <g id="idle-seattle-logo" transform="translate(372.000000, 361.000000)">
                <path d="M171.3345,30.765 C171.411834,31.6930046 171.619665,32.4808301 171.958,33.1285 C172.296335,33.7761699 172.731331,34.302998 173.263,34.709 C173.794669,35.115002 174.408497,35.4098324 175.1045,35.5935 C175.800503,35.7771676 176.544829,35.869 177.3375,35.869 C178.265505,35.869 179.06783,35.7530012 179.7445,35.521 C180.42117,35.2889988 180.972165,34.9748353 181.3975,34.5785 C181.822835,34.1821647 182.136999,33.7230026 182.34,33.201 C182.543001,32.6789974 182.6445,32.1280029 182.6445,31.548 C182.6445,30.7359959 182.460835,30.0786692 182.0935,29.576 C181.726165,29.0733308 181.24767,28.6625016 180.658,28.3435 C180.06833,28.0244984 179.39167,27.7683343 178.628,27.575 C177.86433,27.3816657 177.081337,27.1931676 176.279,27.0095 C175.476663,26.8258324 174.69367,26.6083346 173.93,26.357 C173.16633,26.1056654 172.48967,25.7673355 171.9,25.342 C171.31033,24.9166645 170.831835,24.3705033 170.4645,23.7035 C170.097165,23.0364967 169.9135,22.1906718 169.9135,21.166 C169.9135,20.4506631 170.063332,19.7546701 170.363,19.078 C170.662668,18.40133 171.10733,17.8020026 171.697,17.28 C172.28667,16.7579974 173.026162,16.3423349 173.9155,16.033 C174.804838,15.7236651 175.829494,15.569 176.9895,15.569 C178.168839,15.569 179.198329,15.7333317 180.078,16.062 C180.957671,16.3906683 181.687497,16.8401638 182.2675,17.4105 C182.847503,17.9808362 183.282499,18.6429962 183.5725,19.397 C183.862501,20.1510038 184.0075,20.9533291 184.0075,21.804 L182.1225,21.804 C182.1225,21.0113294 181.982335,20.3250029 181.702,19.745 C181.421665,19.1649971 181.039836,18.6913352 180.5565,18.324 C180.073164,17.9566648 179.52217,17.6860009 178.9035,17.512 C178.28483,17.3379991 177.646837,17.251 176.9895,17.251 C175.984162,17.251 175.138337,17.3911653 174.452,17.6715 C173.765663,17.9518347 173.219502,18.3143311 172.8135,18.759 C172.407498,19.2036689 172.127167,19.696664 171.9725,20.238 C171.817833,20.779336 171.788833,21.320664 171.8855,21.862 C172.001501,22.5386701 172.272165,23.079998 172.6975,23.486 C173.122835,23.892002 173.64483,24.2254987 174.2635,24.4865 C174.88217,24.7475013 175.563663,24.9601658 176.308,25.1245 C177.052337,25.2888342 177.811163,25.4628324 178.5845,25.6465 C179.357837,25.8301676 180.106996,26.0476654 180.832,26.299 C181.557004,26.5503346 182.199831,26.8886645 182.7605,27.314 C183.321169,27.7393355 183.770665,28.2854967 184.109,28.9525 C184.447335,29.6195033 184.6165,30.4556616 184.6165,31.461 C184.6165,33.394343 183.949507,34.8926614 182.6155,35.956 C181.281493,37.0193387 179.406179,37.551 176.9895,37.551 C175.906828,37.551 174.901505,37.4108347 173.9735,37.1305 C173.045495,36.8501653 172.24317,36.4248362 171.5665,35.8545 C170.88983,35.2841638 170.363002,34.5785042 169.986,33.7375 C169.608998,32.8964958 169.4205,31.9056724 169.4205,30.765 L171.3345,30.765 Z M198.8555,28.445 C198.8555,27.7103297 198.754001,27.0191699 198.551,26.3715 C198.347999,25.7238301 198.048335,25.163169 197.652,24.6895 C197.255665,24.215831 196.757836,23.8388347 196.1585,23.5585 C195.559164,23.2781653 194.872837,23.138 194.0995,23.138 C193.326163,23.138 192.64467,23.2829986 192.055,23.573 C191.46533,23.8630015 190.962669,24.2496643 190.547,24.733 C190.131331,25.2163358 189.797835,25.7769968 189.5465,26.415 C189.295165,27.0530032 189.130834,27.7296631 189.0535,28.445 L198.8555,28.445 Z M189.0535,29.895 C189.0535,30.7070041 189.159832,31.4754964 189.3725,32.2005 C189.585168,32.9255036 189.899331,33.5538307 190.315,34.0855 C190.730669,34.6171693 191.257497,35.0424984 191.8955,35.3615 C192.533503,35.6805016 193.268163,35.84 194.0995,35.84 C195.240172,35.84 196.216496,35.5403363 197.0285,34.941 C197.840504,34.3416637 198.381832,33.4910055 198.6525,32.389 L200.5955,32.389 C200.382832,33.1043369 200.102502,33.766497 199.7545,34.3755 C199.406498,34.984503 198.971503,35.5161644 198.4495,35.9705 C197.927497,36.4248356 197.308837,36.7776654 196.5935,37.029 C195.878163,37.2803346 195.046838,37.406 194.0995,37.406 C192.900827,37.406 191.866504,37.203002 190.9965,36.797 C190.126496,36.390998 189.411169,35.8351702 188.8505,35.1295 C188.289831,34.4238298 187.874168,33.5925048 187.6035,32.6355 C187.332832,31.6784952 187.1975,30.6490055 187.1975,29.547 C187.1975,28.4449945 187.356998,27.4106715 187.676,26.444 C187.995002,25.4773285 188.44933,24.6315036 189.039,23.9065 C189.62867,23.1814964 190.348829,22.6111687 191.1995,22.1955 C192.050171,21.7798313 193.016828,21.572 194.0995,21.572 C196.168177,21.572 197.792161,22.2824929 198.9715,23.7035 C200.150839,25.1245071 200.730833,27.1883198 200.7115,29.895 L189.0535,29.895 Z M213.9355,29.112 C213.20083,29.4213349 212.456504,29.6243329 211.7025,29.721 C210.948496,29.8176672 210.194504,29.8949997 209.4405,29.953 C208.106493,30.0496672 207.067337,30.3493308 206.323,30.852 C205.578663,31.3546692 205.2065,32.1183282 205.2065,33.143 C205.2065,33.6070023 205.298332,34.008165 205.482,34.3465 C205.665668,34.684835 205.907332,34.9651656 206.207,35.1875 C206.506668,35.4098344 206.854665,35.5741661 207.251,35.6805 C207.647335,35.7868339 208.048498,35.84 208.4545,35.84 C209.150503,35.84 209.827163,35.7530009 210.4845,35.579 C211.141837,35.4049991 211.726664,35.1391685 212.239,34.7815 C212.751336,34.4238315 213.162165,33.9695028 213.4715,33.4185 C213.780835,32.8674972 213.9355,32.2150038 213.9355,31.461 L213.9355,29.112 Z M211.0065,28.242 C211.335168,28.2033331 211.726664,28.1453337 212.181,28.068 C212.635336,27.9906663 213.007499,27.884334 213.2975,27.749 C213.587501,27.613666 213.766333,27.3865016 213.834,27.0675 C213.901667,26.7484984 213.9355,26.453668 213.9355,26.183 C213.9355,25.2936622 213.650336,24.5638362 213.08,23.9935 C212.509664,23.4231638 211.54784,23.138 210.1945,23.138 C209.595164,23.138 209.044169,23.1911661 208.5415,23.2975 C208.038831,23.4038339 207.599002,23.5874987 207.222,23.8485 C206.844998,24.1095013 206.535668,24.4574978 206.294,24.8925 C206.052332,25.3275022 205.892834,25.8736634 205.8155,26.531 L204.0465,26.531 C204.1045,25.6416622 204.307498,24.8828365 204.6555,24.2545 C205.003502,23.6261635 205.452997,23.1138353 206.004,22.7175 C206.555003,22.3211647 207.192996,22.0311676 207.918,21.8475 C208.643004,21.6638324 209.411496,21.572 210.2235,21.572 C210.977504,21.572 211.687997,21.6541658 212.355,21.8185 C213.022003,21.9828342 213.601998,22.2438315 214.095,22.6015 C214.588002,22.9591685 214.974665,23.4376637 215.255,24.037 C215.535335,24.6363363 215.6755,25.3709957 215.6755,26.241 L215.6755,34.419 C215.6755,35.0956701 215.796332,35.5258324 216.038,35.7095 C216.279668,35.8931676 216.76783,35.849668 217.5025,35.579 L217.5025,36.942 C217.367166,36.9806669 217.169001,37.0386663 216.908,37.116 C216.646999,37.1933337 216.390835,37.232 216.1395,37.232 C215.868832,37.232 215.607835,37.2030003 215.3565,37.145 C215.066499,37.1063331 214.834501,37.0145007 214.6605,36.8695 C214.486499,36.7244993 214.346334,36.550501 214.24,36.3475 C214.133666,36.144499 214.061167,35.9221679 214.0225,35.6805 C213.983833,35.4388321 213.9645,35.182668 213.9645,34.912 C213.22983,35.7240041 212.388838,36.3426645 211.4415,36.768 C210.494162,37.1933355 209.469506,37.406 208.3675,37.406 C207.710163,37.406 207.077003,37.3190009 206.468,37.145 C205.858997,36.9709991 205.322502,36.7003352 204.8585,36.333 C204.394498,35.9656648 204.027168,35.5161693 203.7565,34.9845 C203.485832,34.4528307 203.3505,33.8196703 203.3505,33.085 C203.3505,30.5329872 205.100149,29.0250023 208.5995,28.561 L211.0065,28.242 Z M225.5065,37.058 C225.293832,37.0966669 225.013502,37.1643329 224.6655,37.261 C224.317498,37.3576672 223.930835,37.406 223.5055,37.406 C222.635496,37.406 221.973336,37.1885022 221.519,36.7535 C221.064664,36.3184978 220.8375,35.5403389 220.8375,34.419 L220.8375,23.428 L218.7205,23.428 L218.7205,21.978 L220.8375,21.978 L220.8375,17.802 L222.5775,17.802 L222.5775,21.978 L225.3905,21.978 L225.3905,23.428 L222.5775,23.428 L222.5775,33.723 C222.5775,34.0903352 222.587167,34.409332 222.6065,34.68 C222.625833,34.950668 222.683833,35.1729991 222.7805,35.347 C222.877167,35.5210009 223.026999,35.6466663 223.23,35.724 C223.433001,35.8013337 223.718165,35.84 224.0855,35.84 C224.317501,35.84 224.554332,35.8206669 224.796,35.782 C225.037668,35.7433331 225.274499,35.6950003 225.5065,35.637 L225.5065,37.058 Z M233.5685,37.058 C233.355832,37.0966669 233.075502,37.1643329 232.7275,37.261 C232.379498,37.3576672 231.992835,37.406 231.5675,37.406 C230.697496,37.406 230.035336,37.1885022 229.581,36.7535 C229.126664,36.3184978 228.8995,35.5403389 228.8995,34.419 L228.8995,23.428 L226.7825,23.428 L226.7825,21.978 L228.8995,21.978 L228.8995,17.802 L230.6395,17.802 L230.6395,21.978 L233.4525,21.978 L233.4525,23.428 L230.6395,23.428 L230.6395,33.723 C230.6395,34.0903352 230.649167,34.409332 230.6685,34.68 C230.687833,34.950668 230.745833,35.1729991 230.8425,35.347 C230.939167,35.5210009 231.088999,35.6466663 231.292,35.724 C231.495001,35.8013337 231.780165,35.84 232.1475,35.84 C232.379501,35.84 232.616332,35.8206669 232.858,35.782 C233.099668,35.7433331 233.336499,35.6950003 233.5685,35.637 L233.5685,37.058 Z M236.6135,37 L236.6135,16.12 L238.3535,16.12 L238.3535,37 L236.6135,37 Z M253.6655,28.445 C253.6655,27.7103297 253.564001,27.0191699 253.361,26.3715 C253.157999,25.7238301 252.858335,25.163169 252.462,24.6895 C252.065665,24.215831 251.567836,23.8388347 250.9685,23.5585 C250.369164,23.2781653 249.682837,23.138 248.9095,23.138 C248.136163,23.138 247.45467,23.2829986 246.865,23.573 C246.27533,23.8630015 245.772669,24.2496643 245.357,24.733 C244.941331,25.2163358 244.607835,25.7769968 244.3565,26.415 C244.105165,27.0530032 243.940834,27.7296631 243.8635,28.445 L253.6655,28.445 Z M243.8635,29.895 C243.8635,30.7070041 243.969832,31.4754964 244.1825,32.2005 C244.395168,32.9255036 244.709331,33.5538307 245.125,34.0855 C245.540669,34.6171693 246.067497,35.0424984 246.7055,35.3615 C247.343503,35.6805016 248.078163,35.84 248.9095,35.84 C250.050172,35.84 251.026496,35.5403363 251.8385,34.941 C252.650504,34.3416637 253.191832,33.4910055 253.4625,32.389 L255.4055,32.389 C255.192832,33.1043369 254.912502,33.766497 254.5645,34.3755 C254.216498,34.984503 253.781503,35.5161644 253.2595,35.9705 C252.737497,36.4248356 252.118837,36.7776654 251.4035,37.029 C250.688163,37.2803346 249.856838,37.406 248.9095,37.406 C247.710827,37.406 246.676504,37.203002 245.8065,36.797 C244.936496,36.390998 244.221169,35.8351702 243.6605,35.1295 C243.099831,34.4238298 242.684168,33.5925048 242.4135,32.6355 C242.142832,31.6784952 242.0075,30.6490055 242.0075,29.547 C242.0075,28.4449945 242.166998,27.4106715 242.486,26.444 C242.805002,25.4773285 243.25933,24.6315036 243.849,23.9065 C244.43867,23.1814964 245.158829,22.6111687 246.0095,22.1955 C246.860171,21.7798313 247.826828,21.572 248.9095,21.572 C250.978177,21.572 252.602161,22.2824929 253.7815,23.7035 C254.960839,25.1245071 255.540833,27.1883198 255.5215,29.895 L243.8635,29.895 Z" id="Seattle" fill="#FFFFFF"></path>
                <path d="M152.251029,0.5 L152.251029,50.5" id="Line" stroke="#FFFFFF" stroke-width="2" stroke-linecap="square" opacity="0.409748134"></path>
                <path d="M0.185481071,6.06152344 L11.9345045,6.06152344 L11.9345045,44 L0.185481071,44 L0.185481071,6.06152344 Z M21.9624915,6.06152344 L39.3789954,6.06152344 C42.8122808,6.06152344 45.5856092,6.52733909 47.6990638,7.45898438 C49.8125184,8.39062966 51.5593271,9.72769311 52.9395423,11.4702148 C54.3197575,13.2127366 55.3203986,15.2398973 55.9414954,17.5517578 C56.5625923,19.8636183 56.873136,22.3134636 56.873136,24.9013672 C56.873136,28.9557494 56.4116335,32.1000051 55.4886146,34.3342285 C54.5655956,36.5684519 53.2846026,38.4403408 51.645597,39.9499512 C50.0065914,41.4595616 48.2468434,42.4645157 46.3663001,42.9648438 C43.7956492,43.6549514 41.466571,44 39.3789954,44 L21.9624915,44 L21.9624915,6.06152344 Z M33.685636,14.6533203 L33.685636,35.3823242 L36.5581946,35.3823242 C39.0080767,35.3823242 40.7505723,35.1105984 41.7857337,34.5671387 C42.8208951,34.0236789 43.6317594,33.0747952 44.2183509,31.720459 C44.8049424,30.3661228 45.0982337,28.1707509 45.0982337,25.1342773 C45.0982337,21.1144005 44.4426413,18.3626376 43.1314368,16.8789062 C41.8202324,15.3951749 39.646426,14.6533203 36.6099524,14.6533203 L33.685636,14.6533203 Z M64.4943848,6.06152344 L76.2175293,6.06152344 L76.2175293,34.6577148 L94.513916,34.6577148 L94.513916,44 L64.4943848,44 L64.4943848,6.06152344 Z M101.281161,6.06152344 L132.698153,6.06152344 L132.698153,14.1616211 L113.030184,14.1616211 L113.030184,20.1914062 L131.274813,20.1914062 L131.274813,27.9291992 L113.030184,27.9291992 L113.030184,35.4082031 L133.267489,35.4082031 L133.267489,44 L101.281161,44 L101.281161,6.06152344 Z" id="IDLE" fill="#FFFFFF"></path>
            </g>
        </g>
    </g>
</svg>